<svg xmlns="http://www.w3.org/2000/svg" viewBox="0 0 500 500"><g id="freepik--obj-2--inject-240"><ellipse cx="222.8" cy="447" rx="32.6" ry="28.5" transform="matrix(6.8,0,0,7,-2917.1,-985.2) rotate(-43.1)" style="fill: #ffffff"></ellipse><path transform="matrix(6.8,0,0,7,-973.9,-1682)" d="M 176.1 305 C 168.2 305.1 160.7 301.8 155.5 296 c -5.1 -5.9 -7.3 -13.7 -6.2 -22.1 c 2.3 -17 18 -30.9 35.1 -30.9 C 192.2 242.8 199.8 246.1 205 252 c 5.1 5.9 7.3 13.7 6.2 22 l -0.5 -0.1 l 0.5 0.1 C 208.9 291.1 193.2 305 176.1 305 Z m 8.3 -61 c -16.6 0 -31.9 13.5 -34.1 30.1 C 149.1 281.6 151.2 289.4 156.3 295.3 C 161.3 300.9 168.6 304.1 176.1 303.9 c 16.6 0 31.9 -13.5 34.1 -30.1 C 211.5 266.3 209.3 258.5 204.3 252.6 C 199.2 247 191.9 243.8 184.4 244 Z" style="fill: #263238"></path><path transform="matrix(6.8,0,0,7,-825.6,-1732.3)" d="M 148 279.2 s 0 -0.1 0 -0.1 l -7.3 -2.5 l -10.5 6.9 l 2.5 13.3 H 144.8 l 0.1 0 l 5.3 -6.2 Z" style="fill: none"></path><path transform="matrix(6.8,0,0,7,-1108.8,-1732.4)" d="M 211 279.3 l -5.3 11.5 l 3.6 6.1 h 12.2 l 6.2 -13.4 l -8.5 -6.9 l -8.1 2.5 C 211 279.2 211 279.3 211 279.3 Z" style="fill: none"></path><path transform="matrix(6.8,0,0,7,-903.6,-1556.3)" d="M 170.8 246.3 l 1.1 -8.4 l -8.7 -7 l -12.5 8.3 l 2.2 11.6 s 0 0.1 0 0.1 l 7.3 2.5 Z" style="fill: none"></path><path transform="matrix(6.8,0,0,7,-1078,-1556.3)" d="M 206 253.3 l 8.1 -2.5 C 214.1 250.7 214.1 250.7 214.1 250.6 l 5.3 -11.5 l -10.2 -8.2 l -10.7 7.1 l -1.1 8.4 Z" style="fill: none"></path><path transform="matrix(6.8,0,0,7,-956,-1853)" d="M 182.5 308.6 H 170.1 l -0.1 0 l -5.3 6.2 l 2.1 11.2 h 14 L 186.1 314.6 L 182.5 308.6 Z" style="fill: none"></path><path transform="matrix(6.8,0,0,7,-975.6,-1685.4)" d="M 181.8 267.4 C 181.8 267.6 181.7 267.7 181.5 267.7 h 0 C 181.4 267.7 181.3 267.6 181.2 267.6 C 181.1 267.5 181.1 267.4 181.1 267.3 l 0.2 -1.2 l -9.2 6.1 l 1.1 0.4 C 173.3 272.6 173.3 272.7 173.4 272.7 C 173.4 272.8 173.4 272.9 173.4 273 C 173.4 273.2 173.2 273.3 173 273.3 l -0.1 0 l -1.5 -0.5 l 2 10.3 L 174.4 281.7 C 174.6 281.6 174.8 281.5 175 281.7 C 175.1 281.8 175.1 282.1 175 282.2 L 173.8 283.7 h 11 l -0.9 -1.5 C 183.8 282 183.8 281.8 184 281.7 C 184.2 281.6 184.4 281.6 184.5 281.8 l 0.8 1.3 L 190 272.8 l -1.5 0.5 l -0.1 0 C 188.2 273.3 188.1 273.2 188 273 C 187.9 272.8 188.1 272.6 188.3 272.5 l 1.4 -0.4 L 182 266 Z" style="fill: #263238"></path><polygon transform="matrix(6.8,0,0,7,-1022.6,-1627.8)" points="189,257.8 196.6,263.9 197.8,263.5 189.1,256.6 189,257.8" style="fill: #263238"></polygon><path transform="matrix(6.8,0,0,7,-1037.8,-1716.4)" d="M 195.2 288.5 l 5.3 -11.5 C 200.5 277 200.5 276.9 200.5 276.9 l -1.3 0.4 l -4.7 10.2 Z" style="fill: #263238"></path><path transform="matrix(6.8,0,0,7,-962.8,-1769.9)" d="M 171 296.8 l 0.1 0 h 12.4 l -0.6 -1 h -11 Z" style="fill: #263238"></path><path transform="matrix(6.8,0,0,7,-902.4,-1715.8)" d="M 159.4 276.7 s 0 0.1 0 0.1 l 2.2 11.5 l 0.8 -1 l -2 -10.3 Z" style="fill: #263238"></path><polygon transform="matrix(6.8,0,0,7,-937.9,-1627.7)" points="175.8,256.5 165.2,263.5 166.4,263.9 175.7,257.8 175.8,256.5" style="fill: #263238"></polygon><path transform="matrix(6.8,0,0,7,-1002.8,-1457.3)" d="M 186.7 222.6 l 0.2 -1.4 C 187 221 187.2 220.9 187.4 220.9 C 187.5 220.9 187.6 221 187.6 221 C 187.7 221.1 187.7 221.2 187.7 221.3 l -0.2 1.2 l 9.9 -6.6 l -0.6 -3.4 C 194.2 211.8 191.4 211.4 188.6 211.4 C 185.8 211.4 182.9 211.8 180.2 212.6 l -1.6 3.5 Z" style="fill: #263238"></path><path transform="matrix(6.8,0,0,7,-954.3,-1467.6)" d="M 171.1 217.4 C 171.2 217.6 171.2 217.9 171 218 l -0.3 0.2 l 8.7 7 l 0.2 -1.2 l -8.1 -6.6 l 1.6 -3.5 c -0.4 0.1 -0.9 0.2 -1.3 0.4 l -1.4 3 C 170.3 217.4 170.3 217.4 170.3 217.4 l 0.3 -0.2 C 170.7 217.2 170.8 217.2 170.9 217.2 C 171 217.3 171.1 217.3 171.1 217.4 Z" style="fill: #263238"></path><path transform="matrix(6.8,0,0,7,-1043,-1468.3)" d="M 193.5 224.1 l -0.2 1.3 l 10.7 -7.1 l -0.3 -0.3 C 203.6 218 203.5 217.8 203.5 217.7 C 203.6 217.5 203.7 217.4 203.8 217.3 C 204 217.3 204.1 217.3 204.2 217.4 l 0.3 0.2 l -0.6 -3.1 c -0.4 -0.1 -0.7 -0.2 -1.1 -0.4 l 0.6 3.4 Z" style="fill: #263238"></path><path transform="matrix(6.8,0,0,7,-989.1,-1556.5)" d="M 183.2 247.7 l -0.2 1.2 C 183.1 249 183.1 249.1 183.2 249.1 C 183.2 249.2 183.3 249.3 183.4 249.3 h 0 C 183.6 249.3 183.8 249.2 183.8 249 l 0.2 -1.4 l 0.2 -1.2 l 1.1 -8.4 l 0.2 -1.3 l 0.2 -1.2 C 185.6 235.4 185.6 235.3 185.5 235.2 C 185.5 235.1 185.4 235.1 185.3 235.1 C 185.1 235 184.9 235.2 184.9 235.4 l -0.2 1.4 l -0.2 1.2 L 183.4 246.3 Z" style="fill: #263238"></path><path transform="matrix(6.8,0,0,7,-774.7,-1614.3)" d="M 132 259.3 l -1.1 -0.4 C 130.8 258.9 130.7 258.9 130.6 258.8 C 130.6 258.7 130.6 258.6 130.6 258.5 C 130.7 258.4 130.7 258.3 130.8 258.2 C 130.9 258.2 131 258.2 131.1 258.2 l 1.5 0.5 l -2.1 -10.9 h -3.2 C 123.6 252.6 121.2 258.2 120.3 264.2 l 2 1.6 Z" style="fill: #263238"></path><path transform="matrix(6.8,0,0,7,-776.5,-1670.7)" d="M 122.4 274.1 C 122.6 274 122.8 274.2 122.9 274.4 l 0.1 0.4 l 10.5 -6.9 l -1.2 -0.4 L 122.5 273.8 l -2 -1.6 C 120.5 272.3 120.5 272.3 120.5 272.4 c 0 0.4 -0.1 0.7 -0.1 1.1 l 1.8 1.4 l -0.1 -0.3 C 122.1 274.4 122.1 274.3 122.2 274.2 C 122.2 274.2 122.3 274.1 122.4 274.1 Z" style="fill: #263238"></path><path transform="matrix(6.8,0,0,7,-808.1,-1579.7)" d="M 137.6 253.8 l 1.1 0.4 s 0 -0.1 0 -0.1 l -2.2 -11.6 l -0.3 0.2 C 136.1 242.8 136 242.8 135.9 242.8 C 135.8 242.8 135.6 242.7 135.6 242.5 C 135.5 242.3 135.6 242.2 135.7 242.1 l 0.3 -0.2 H 133.1 c -0.3 0.3 -0.6 0.7 -0.8 1 h 3.2 Z" style="fill: #263238"></path><path transform="matrix(6.8,0,0,7,-862.1,-1648.9)" d="M 154.5 267.5 l 1.5 0.5 l 0.1 0 C 156.4 268.1 156.5 267.9 156.6 267.8 C 156.6 267.7 156.6 267.6 156.5 267.5 C 156.5 267.4 156.4 267.3 156.3 267.3 l -1.1 -0.4 l -1.2 -0.4 l -7.3 -2.5 l -1.1 -0.4 l -1.5 -0.5 C 144 263.1 143.9 263.1 143.8 263.2 C 143.7 263.2 143.6 263.3 143.6 263.4 C 143.5 263.5 143.5 263.6 143.6 263.7 C 143.6 263.8 143.7 263.8 143.8 263.9 l 1.1 0.4 l 1.2 0.4 l 7.3 2.5 Z" style="fill: #263238"></path><path transform="matrix(6.8,0,0,7,-1182.9,-1614.3)" d="M 230.8 258.7 l 1.5 -0.5 C 232.5 258.2 232.6 258.2 232.7 258.2 C 232.7 258.3 232.8 258.4 232.8 258.5 C 232.9 258.6 232.9 258.7 232.8 258.8 C 232.8 258.9 232.7 258.9 232.6 259 l -1.3 0.4 l 7.9 6.4 l 2.5 -1.7 C 242.5 258.5 241.5 252.9 239 247.8 h -3.2 Z" style="fill: #263238"></path><path transform="matrix(6.8,0,0,7,-1164,-1579.4)" d="M 233 242.6 C 233 242.7 232.8 242.7 232.7 242.7 C 232.6 242.7 232.5 242.7 232.5 242.6 l -0.3 -0.3 l -5.3 11.5 C 226.8 254 226.8 254 226.8 254.1 l 1.3 -0.4 l 5 -10.9 h 3.2 c -0.2 -0.4 -0.4 -0.7 -0.6 -1 h -3 l 0.3 0.2 C 233.1 242.1 233.1 242.2 233.1 242.3 C 233.1 242.4 233.1 242.5 233 242.6 Z" style="fill: #263238"></path><path transform="matrix(6.8,0,0,7,-1176.7,-1671.2)" d="M 240.8 272.4 C 240.8 272.4 240.8 272.3 240.8 272.2 l -2.5 1.7 l -7.9 -6.4 l -1.2 0.4 l 8.5 6.9 l 0.2 -0.4 C 238 274.2 238.2 274.1 238.4 274.2 C 238.5 274.2 238.6 274.3 238.6 274.4 C 238.6 274.5 238.6 274.6 238.6 274.7 l -0.1 0.3 h 0 l 2.1 -1.4 C 240.6 273.2 240.7 272.8 240.8 272.4 Z" style="fill: #263238"></path><path transform="matrix(6.8,0,0,7,-1093.7,-1649.2)" d="M 219.6 263.5 C 219.6 263.4 219.5 263.3 219.4 263.2 C 219.4 263.2 219.2 263.2 219.1 263.2 l -1.5 0.5 l -1.3 0.4 l -8.1 2.5 l -1.2 0.4 l -1.4 0.4 C 205.6 267.4 205.5 267.6 205.5 267.9 C 205.6 268 205.7 268.1 205.9 268.1 l 0.1 0 l 1.5 -0.5 l 1.3 -0.4 l 8.1 -2.5 l 1.2 -0.4 l 1.3 -0.4 C 219.5 263.9 219.6 263.9 219.6 263.8 C 219.7 263.7 219.7 263.6 219.6 263.5 Z" style="fill: #263238"></path><path transform="matrix(6.8,0,0,7,-1079.2,-1888.2)" d="M 205.5 320.2 L 206.3 321.7 C 206.4 321.8 206.4 321.9 206.4 322 C 206.4 322.1 206.3 322.2 206.2 322.2 C 206.2 322.2 206.1 322.3 206 322.3 C 205.9 322.3 205.8 322.2 205.7 322.1 l -0.8 -1.3 l -4.8 10.5 l 1.4 1.1 C 207.5 330.5 213 327 217.2 322.3 l -0.4 -2.1 Z" style="fill: #263238"></path><path transform="matrix(6.8,0,0,7,-1102.3,-1838)" d="M 220.7 312.9 C 220.6 312.9 220.6 312.9 220.5 312.9 C 220.3 312.8 220.3 312.6 220.3 312.4 l 0.2 -0.4 H 208.3 l 0.6 1 H 220.3 l 0.4 2.1 c 0.3 -0.3 0.6 -0.6 0.8 -0.9 l -0.3 -1.8 s 0 0 0 0 l -0.1 0.3 C 221 312.8 220.8 312.9 220.7 312.9 Z" style="fill: #263238"></path><path transform="matrix(6.8,0,0,7,-1024.8,-1887.4)" d="M 196.9 320.6 L 196.3 319.6 l -5.2 11.3 h 0.4 C 191.7 330.9 191.8 331.1 191.8 331.3 C 191.8 331.4 191.8 331.5 191.7 331.6 C 191.7 331.6 191.6 331.7 191.5 331.7 h -0.3 l 1.1 0.9 c 0.4 -0.1 0.8 -0.2 1.2 -0.4 l -1.4 -1.1 Z" style="fill: #263238"></path><path transform="matrix(6.8,0,0,7,-1031.1,-1798.9)" d="M 193.5 299.3 l -0.8 -1.3 C 192.7 297.9 192.6 297.8 192.4 297.8 C 192.3 297.8 192.2 297.9 192.1 298 C 192 298.1 192 298.3 192.1 298.4 l 0.9 1.5 l 0.6 1 L 197.2 306.9 l 0.6 1.1 l 0.8 1.3 C 198.7 309.4 198.8 309.4 198.9 309.4 C 199 309.4 199.1 309.4 199.1 309.4 C 199.3 309.3 199.3 309.1 199.2 308.9 l -0.9 -1.5 l -0.6 -1 l -3.6 -6.1 Z" style="fill: #263238"></path><path transform="matrix(6.8,0,0,7,-817.2,-1888)" d="M 143.3 320.8 l -1.1 1.3 C 142.1 322.2 142 322.2 141.9 322.2 C 141.8 322.2 141.7 322.2 141.6 322.1 C 141.5 322 141.5 321.7 141.6 321.6 l 1.2 -1.4 H 131.6 l -1 2.1 C 133.7 327 138.2 330.5 143.6 332.3 l 1.8 -1.2 Z" style="fill: #263238"></path><path transform="matrix(6.8,0,0,7,-873.3,-1888.3)" d="M 153.7 331.4 C 153.7 331.2 153.9 331 154.1 331 h 0.4 l -2.1 -11.2 l -0.8 1 l 2 10.4 l -1.8 1.2 l 1.2 0.4 l 1.4 -0.9 l 0 0 h -0.3 C 154 331.9 153.9 331.8 153.8 331.8 C 153.8 331.7 153.7 331.6 153.7 331.4 Z" style="fill: #263238"></path><path transform="matrix(6.8,0,0,7,-807.8,-1837.8)" d="M 141.4 312.9 l 0.9 -1 l -0.1 0 H 130.1 l 0.1 0.4 C 130.2 312.6 130.1 312.8 129.9 312.8 h -0.1 C 129.6 312.8 129.5 312.7 129.4 312.5 l -0.1 -0.3 l 0 0 l -0.8 1.8 c 0.2 0.4 0.4 0.7 0.6 1 l 1 -2.1 Z" style="fill: #263238"></path><path transform="matrix(6.8,0,0,7,-887.8,-1799)" d="M 160.8 299.9 l 1.2 -1.4 C 162.1 298.3 162.1 298.1 162 297.9 C 161.8 297.8 161.6 297.8 161.4 298 l -1.1 1.3 l -0.8 1 l -5.3 6.2 l -0.9 1 L 152 308.8 C 151.9 309 151.9 309.2 152 309.4 C 152.1 309.5 152.2 309.5 152.3 309.5 C 152.4 309.5 152.5 309.4 152.6 309.4 l 1.1 -1.3 l 0.8 -1 l 5.3 -6.2 Z" style="fill: #263238"></path><path transform="matrix(6.8,0,0,7,-1176.4,-1764.2)" d="M 238.3 287.5 C 238.1 287.4 237.9 287.5 237.8 287.6 l -0.2 0.4 l -6.2 13.4 l -0.2 0.4 C 231.2 302 231.3 302.2 231.5 302.3 C 231.6 302.3 231.6 302.3 231.7 302.3 C 231.8 302.3 232 302.2 232 302.1 l 0.1 -0.3 l 6.3 -13.6 l 0.1 -0.3 C 238.6 287.8 238.5 287.5 238.3 287.5 Z" style="fill: #263238"></path><path transform="matrix(6.8,0,0,7,-1129.1,-1489.3)" d="M 216.4 220.5 C 216.4 220.6 216.3 220.7 216.3 220.8 C 216.4 220.9 216.4 221 216.5 221.1 l 0.3 0.3 l 10.2 8.2 l 0.3 0.3 C 227.4 229.8 227.5 229.9 227.6 229.9 C 227.7 229.9 227.8 229.8 227.9 229.7 C 227.9 229.6 228 229.5 228 229.4 C 227.9 229.3 227.9 229.2 227.8 229.2 l -0.3 -0.2 L 217.2 220.7 l -0.3 -0.2 C 216.8 220.4 216.6 220.4 216.4 220.5 Z" style="fill: #263238"></path><path transform="matrix(6.8,0,0,7,-942.8,-1934.7)" d="M 179.7 338.1 C 179.7 337.8 179.5 337.7 179.3 337.7 H 164.4 C 164.2 337.7 164 337.8 164 338.1 C 164 338.2 164.1 338.3 164.1 338.3 C 164.2 338.4 164.3 338.5 164.4 338.5 h 14.8 C 179.4 338.5 179.5 338.4 179.5 338.3 C 179.6 338.3 179.7 338.2 179.7 338.1 Z" style="fill: #263238"></path><path transform="matrix(6.8,0,0,7,-751,-1764.5)" d="M 121.4 302.4 h 0.1 C 121.7 302.3 121.8 302.1 121.8 301.9 l -0.1 -0.4 l -2.5 -13.3 l -0.1 -0.4 C 119.1 287.6 118.9 287.4 118.6 287.5 C 118.5 287.5 118.5 287.6 118.4 287.6 C 118.3 287.7 118.3 287.8 118.3 287.9 l 0.1 0.3 l 2.6 13.5 l 0.1 0.3 C 121.1 302.2 121.2 302.4 121.4 302.4 Z" style="fill: #263238"></path><path transform="matrix(6.8,0,0,7,-866.1,-1489.2)" d="M 144.2 229.7 C 144.3 229.8 144.4 229.9 144.5 229.9 C 144.6 229.9 144.7 229.8 144.8 229.8 l 0.3 -0.2 l 12.5 -8.3 l 0.3 -0.2 C 158.1 220.9 158.2 220.7 158.1 220.5 C 157.9 220.4 157.7 220.3 157.5 220.4 l -0.3 0.2 l -12.7 8.4 l -0.3 0.2 C 144.1 229.3 144.1 229.5 144.2 229.7 Z" style="fill: #263238"></path></g></svg>
